<?xml version="1.0" encoding="UTF-8"?>
<!-- Ilustraci칩n SVG original: fondo amplio inspirado en la foto proporcionada -->
<svg xmlns="http://www.w3.org/2000/svg" viewBox="0 0 1920 1080" preserveAspectRatio="xMidYMid slice">
  <defs>
    <linearGradient id="bg" x1="0" x2="1">
      <stop offset="0%" stop-color="#0b1220"/>
      <stop offset="60%" stop-color="#0f1724"/>
      <stop offset="100%" stop-color="#172033"/>
    </linearGradient>
    <linearGradient id="flare" x1="0" x2="1">
      <stop offset="0%" stop-color="#ff8a00" stop-opacity="0.14"/>
      <stop offset="100%" stop-color="#ff3d00" stop-opacity="0.06"/>
    </linearGradient>
    <filter id="shadow" x="-30%" y="-30%" width="160%" height="160%">
      <feDropShadow dx="0" dy="30" stdDeviation="50" flood-color="#000" flood-opacity="0.45"/>
    </filter>
  </defs>

  <!-- fondo degradado oscuro -->
  <rect width="100%" height="100%" fill="url(#bg)"/>

  <!-- mancha de luz c치lida hacia la derecha, recuerda la tonalidad de la foto -->
  <ellipse cx="1480" cy="220" rx="680" ry="220" fill="url(#flare)"/>

  <!-- planos: carretera/silueta para dar sensaci칩n de profundidad -->
  <g transform="translate(0,580)">
    <path d="M0 120 C300 40, 600 0, 960 0 C1320 0, 1620 40, 1920 120 L1920 300 L0 300 Z" fill="#0b141a" opacity="0.85"/>
    <path d="M0 0 L1920 0 L1920 40 C1620 0, 1320 0, 960 0 C600 0,300 40,0 120 Z" fill="#0f1b23" opacity="0.55"/>
  </g>

  <!-- moto estilizada en primer plano, centrada a la derecha, trazos simples -->
  <g transform="translate(760,360) scale(1.1)" fill="none" stroke="#fff" stroke-linecap="round" stroke-linejoin="round" stroke-width="8">
    <!-- ruedas -->
    <circle cx="-80" cy="220" r="72" fill="#0b0f12" stroke="#cbd5e1" stroke-width="10"/>
    <circle cx="320" cy="220" r="72" fill="#0b0f12" stroke="#cbd5e1" stroke-width="10"/>

    <!-- chasis -->
    <path d="M-80 220 C40 120, 160 100, 320 160" stroke="#fff" stroke-width="10" fill="none"/>

    <!-- tanque y asiento (silueta s칩lida con acento naranja) -->
    <path d="M40 78 C120 30, 260 30, 320 78 C340 98, 300 120, 260 120 L160 120 C120 120, 80 100, 40 78 Z" fill="#0b1220" opacity="0.96"/>
    <path d="M60 80 C120 48, 240 48, 300 80" stroke="#ff7a1a" stroke-width="6" fill="none"/>

    <!-- manillar -->
    <path d="M340 120 L380 80" stroke="#fff" stroke-width="8"/>
  </g>

  <!-- transparencia suave abajo para ayudar al texto encima si se usa como background -->
  <rect y="780" width="1920" height="300" fill="black" opacity="0.16"/>
</svg>
