<?xml version="1.0" encoding="UTF-8"?>
<!-- Ilustración alternativa: estética minimalista con panel diagonal y silueta de moto -->
<svg xmlns="http://www.w3.org/2000/svg" viewBox="0 0 1920 1080" preserveAspectRatio="xMidYMid slice">
  <defs>
    <linearGradient id="panel" x1="0" x2="1">
      <stop offset="0%" stop-color="#071029"/>
      <stop offset="100%" stop-color="#0f1724"/>
    </linearGradient>
    <linearGradient id="accent" x1="0" x2="1">
      <stop offset="0%" stop-color="#ff7a1a"/>
      <stop offset="100%" stop-color="#ff3d00"/>
    </linearGradient>
    <filter id="soft" x="-20%" y="-20%" width="140%" height="140%">
      <feGaussianBlur stdDeviation="24" result="b"/>
      <feBlend in="SourceGraphic" in2="b"/>
    </filter>
  </defs>

  <!-- Fondo base oscuro -->
  <rect width="100%" height="100%" fill="#071022" />

  <!-- Gran panel diagonal cálido a la derecha -->
  <g transform="translate(0,0)">
    <path d="M880 0 L1920 0 L1920 1080 L520 1080 Z" fill="url(#panel)" opacity="0.96"/>
    <path d="M980 0 L1920 0 L1920 1080 L680 1080 Z" fill="url(#accent)" opacity="0.06"/>
  </g>

  <!-- Suave halo en la derecha para profundidad -->
  <ellipse cx="1500" cy="300" rx="520" ry="160" fill="#ff7a1a" opacity="0.06"/>

  <!-- Silueta de moto minimalista, ubicada en el lado derecho (contraste blanco) -->
  <g transform="translate(980,380) scale(1.4)" fill="#ffffff" stroke="none">
    <path d="M-160 200c30-40 70-64 120-72 40-6 80-2 120 12 18 6 36 10 54 12 12 1 24 2 36 0 8-1 14-6 20-12 10-8 20-18 28-28 10-14 20-30 32-44 22-28 50-52 86-64 20-6 42-8 62-4 8 2 14 6 18 12 4 8 2 16-6 20-48 22-84 58-110 100-18 28-40 54-66 76-34 28-78 44-122 44-72 0-136-36-180-92z"/>
    <circle cx="-120" cy="220" r="72"/>
    <circle cx="200" cy="220" r="72"/>
  </g>

  <!-- Banda inferior tenue para mejor contraste con el contenido -->
  <rect y="860" width="1920" height="220" fill="black" opacity="0.12"/>
</svg>
